<svg width="50" height="50" viewBox="0 0 50 50" fill="none" xmlns="http://www.w3.org/2000/svg">
<g clip-path="url(#clip0_33_39)">
<path d="M11.3655 49.7539V24.1295L5.37505 16.8593L0.0032959 12.8249V45.2319C0.0032959 47.7339 1.53141 49.7539 3.41203 49.7539H11.3655Z" fill="#4285F4"/>
<path d="M38.6345 49.7539H46.588C48.4742 49.7539 49.9967 47.7264 49.9967 45.2319V12.8251L43.9123 17.4461L38.6345 24.1295V49.7539Z" fill="#34A853"/>
<path d="M11.3655 24.1295L10.5504 14.1174L11.3655 4.53473L25 18.1005L38.6345 4.53473L39.5463 13.6L38.6345 24.1295L25 37.6954L11.3655 24.1295Z" fill="#EA4335"/>
<path d="M38.6345 4.53473V24.1295L49.9967 12.8249V6.79561C49.9967 1.20364 45.1848 -1.98419 41.8161 1.36944L38.6345 4.53473Z" fill="#FBBC04"/>
<path d="M0.0032959 12.8249L5.22897 18.0244L11.3655 24.1296V4.53475L8.18386 1.36947C4.8093 -1.98442 0.0032959 1.20367 0.0032959 6.79538V12.8246V12.8249Z" fill="#C5221F"/>
</g>
<defs>
<clipPath id="clip0_33_39">
<rect width="50" height="50" fill="white"/>
</clipPath>
</defs>
</svg>
