<svg width="50" height="50" viewBox="0 0 50 50" fill="none" xmlns="http://www.w3.org/2000/svg">
<g clip-path="url(#clip0_33_45)">
<path d="M42.6022 42.6029H35.1938V31.0008C35.1938 28.2342 35.1444 24.6727 31.3406 24.6727C27.482 24.6727 26.8916 27.6871 26.8916 30.7994V42.6021H19.4834V18.7436H26.5953V22.0041H26.6949C27.4067 20.7871 28.4352 19.786 29.6709 19.1073C30.9066 18.4286 32.3033 18.0977 33.7121 18.15C41.2209 18.15 42.6053 23.0891 42.6053 29.5145L42.6022 42.6029ZM11.124 15.4824C8.74962 15.4828 6.82443 13.5582 6.82404 11.1838C6.82364 8.80938 8.74806 6.88418 11.1225 6.88379C13.4969 6.8832 15.4221 8.80781 15.4225 11.1822C15.4227 12.3225 14.9699 13.4161 14.1638 14.2225C13.3577 15.029 12.2643 15.4822 11.124 15.4824ZM14.8283 42.6031H7.41212V18.7436H14.8281V42.6029L14.8283 42.6031ZM46.2955 0.00351697H3.68947C1.67579 -0.0191393 0.0244263 1.59395 -0.000183105 3.60762V46.3914C0.023645 48.4061 1.67482 50.0207 3.68927 49.9996H46.2955C48.3143 50.0246 49.9719 48.41 49.9998 46.3914V3.6043C49.9711 1.58672 48.3133 -0.0261705 46.2955 0.000196659" fill="#0A66C2"/>
</g>
<defs>
<clipPath id="clip0_33_45">
<rect width="50" height="50" fill="white"/>
</clipPath>
</defs>
</svg>
