<svg width="50" height="50" viewBox="0 0 50 50" fill="none" xmlns="http://www.w3.org/2000/svg">
<path d="M35.4167 18.6396C34.65 18.9729 33.8271 19.2021 32.9625 19.3021C33.8458 18.7812 34.5208 17.9562 34.8417 16.975C33.9999 17.4655 33.0815 17.8107 32.125 17.9958C31.7227 17.5741 31.2386 17.2387 30.7024 17.0102C30.1662 16.7817 29.5891 16.6648 29.0063 16.6666C26.6458 16.6666 24.7333 18.5521 24.7333 20.875C24.7333 21.2041 24.7708 21.525 24.8438 21.8333C23.1507 21.7529 21.493 21.3205 19.9764 20.5636C18.4598 19.8067 17.1176 18.7421 16.0354 17.4375C15.6553 18.0773 15.4552 18.8079 15.4563 19.5521C15.4563 21.0104 16.2125 22.3021 17.3583 23.0541C16.6801 23.0329 16.0164 22.8523 15.4208 22.5271V22.5791C15.4273 23.5572 15.7725 24.5028 16.3978 25.2549C17.023 26.007 17.8896 26.5192 18.85 26.7041C18.2195 26.8709 17.5598 26.8951 16.9188 26.775C17.1982 27.6164 17.7327 28.3499 18.448 28.8737C19.1633 29.3975 20.0239 29.6855 20.9104 29.6979C19.3895 30.8699 17.5222 31.5031 15.6021 31.4979C15.2583 31.4979 14.9188 31.4771 14.5833 31.4396C16.5427 32.6797 18.8145 33.3366 21.1333 33.3333C28.9958 33.3333 33.2938 26.9208 33.2938 21.3583L33.2792 20.8125C34.1173 20.2235 34.8415 19.4872 35.4167 18.6396Z" fill="black"/>
<path d="M12.5 8.33332C11.3949 8.33332 10.3351 8.77231 9.55373 9.55371C8.77232 10.3351 8.33334 11.3949 8.33334 12.5V37.5C8.33334 38.6051 8.77232 39.6649 9.55373 40.4463C10.3351 41.2277 11.3949 41.6667 12.5 41.6667H37.5C38.6051 41.6667 39.6649 41.2277 40.4463 40.4463C41.2277 39.6649 41.6667 38.6051 41.6667 37.5V12.5C41.6667 11.3949 41.2277 10.3351 40.4463 9.55371C39.6649 8.77231 38.6051 8.33332 37.5 8.33332H12.5ZM12.5 4.16666H37.5C39.7101 4.16666 41.8298 5.04463 43.3926 6.60743C44.9554 8.17024 45.8333 10.2899 45.8333 12.5V37.5C45.8333 39.7101 44.9554 41.8297 43.3926 43.3925C41.8298 44.9553 39.7101 45.8333 37.5 45.8333H12.5C10.2899 45.8333 8.17025 44.9553 6.60745 43.3925C5.04465 41.8297 4.16667 39.7101 4.16667 37.5V12.5C4.16667 10.2899 5.04465 8.17024 6.60745 6.60743C8.17025 5.04463 10.2899 4.16666 12.5 4.16666Z" fill="black"/>
</svg>
